<?xml version="1.0" encoding="UTF-8"?>
<svg version="1.1" xmlns="http://www.w3.org/2000/svg" width="411" height="400">
<path d="M0 0 C135.63 0 271.26 0 411 0 C411 132 411 264 411 400 C275.37 400 139.74 400 0 400 C0 268 0 136 0 0 Z " fill="#FEFEFE" transform="translate(0,0)"/>
<path d="M0 0 C1.92281499 -0.0269028 3.84555049 -0.06011134 5.76815796 -0.09912109 C10.97408542 -0.18438199 16.17574339 -0.17459395 21.38211465 -0.1422143 C25.73602598 -0.12375106 30.08913882 -0.15179688 34.44296139 -0.17966926 C44.72000564 -0.24466233 54.99496359 -0.2325116 65.27197266 -0.17089844 C75.85494507 -0.10867643 86.43200943 -0.17017864 97.01430827 -0.29396355 C106.1173757 -0.39639869 115.21860616 -0.42462739 124.32219571 -0.3933419 C129.75196804 -0.37522778 135.17814117 -0.38396662 140.60744667 -0.46295547 C173.47967601 -0.89381837 173.47967601 -0.89381837 181.02725792 3.85630226 C185.33589951 8.15235423 187.54598881 12.85965319 189.28618526 18.626688 C190.55246785 22.39716952 192.66831878 25.55472201 194.81518555 28.87548828 C195.55952493 30.12385971 196.29907374 31.37511216 197.03173828 32.63037109 C199.41182485 36.67999031 201.80121445 40.72403965 204.1940918 44.76611328 C204.60243759 45.45613434 205.01078339 46.1461554 205.4315033 46.85708618 C209.57772323 53.85371975 213.79203142 60.80829865 218.0222168 67.75439453 C218.73388815 68.92333897 219.44555809 70.09228428 220.15722656 71.26123047 C221.1828772 72.94587402 221.1828772 72.94587402 222.22924805 74.66455078 C227.0314454 82.55278126 231.78093578 90.47213078 236.52319336 98.39648438 C239.53991252 103.43472611 242.56291462 108.46920046 245.5847168 113.50439453 C246.8581781 115.62677608 248.13161587 117.74917176 249.4050293 119.87158203 C250.0228125 120.9012207 250.6405957 121.93085938 251.27709961 122.99169922 C252.98120117 125.83186849 254.68530273 128.67203776 256.3894043 131.51220703 C256.90462646 132.37056152 257.41984863 133.22891602 257.95068359 134.11328125 C258.94298108 135.76780606 259.93406488 137.42305948 260.92382812 139.07910156 C263.18473927 142.85905631 265.4625293 146.62545422 267.79174805 150.36376953 C268.42234131 151.38543213 268.42234131 151.38543213 269.06567383 152.42773438 C269.83852872 153.67787643 270.61880466 154.92347939 271.40844727 156.16308594 C273.62828583 159.77176812 275.02321267 162.73824451 275.0847168 167.00439453 C273.7409668 169.99267578 273.7409668 169.99267578 271.5847168 173.31689453 C270.73961258 174.65197577 269.89597014 175.98798298 269.0534668 177.32470703 C268.58038086 178.06495117 268.10729492 178.80519531 267.61987305 179.56787109 C264.68715497 184.22253497 261.90121747 188.96637081 259.0847168 193.69189453 C253.68016987 202.71199116 248.23648029 211.70789536 242.7722168 220.69189453 C234.4890133 234.31126202 226.28346326 247.97655456 218.09301758 261.65185547 C215.30108784 266.31253857 212.50555858 270.97105754 209.7097168 275.62939453 C208.76828682 277.19839071 207.82688015 278.76740088 206.88549805 280.33642578 C204.92456055 283.60465495 202.96362305 286.87288411 201.00268555 290.14111328 C200.48826904 290.99850098 199.97385254 291.85588867 199.44384766 292.73925781 C198.42522624 294.43690658 197.40651116 296.13449916 196.38769531 297.83203125 C194.09176829 301.65768948 191.79703413 305.48404341 189.5065918 309.31298828 C189.10593506 309.98225342 188.70527832 310.65151855 188.29248047 311.34106445 C187.23440824 313.1087285 186.17710602 314.8768534 185.11987305 316.64501953 C184.44827148 317.75361328 183.77666992 318.86220703 183.0847168 320.00439453 C182.85673401 320.68109192 182.62875122 321.35778931 182.39385986 322.05499268 C181.28925316 324.74467616 180.35071938 326.14850374 178.0847168 328.00439453 C172.39346843 329.18316475 166.75798748 328.93456669 160.97143555 328.78564453 C159.27467009 328.77071635 157.57787006 328.75933204 155.88105774 328.75134277 C151.42329044 328.72085278 146.96762148 328.64232088 142.51068115 328.55371094 C137.95947661 328.47174929 133.40793162 328.43530952 128.85620117 328.39501953 C119.93145301 328.30932033 111.00825963 328.17285426 102.0847168 328.00439453 C101.4985486 311.44544103 101.05887825 294.88988735 100.7894125 278.32304287 C100.66091248 270.62872976 100.48609961 262.94088701 100.19873047 255.25073242 C99.94811089 248.54076854 99.78795955 241.83548668 99.73250443 235.12097317 C99.70010093 231.56828292 99.62519836 228.02897084 99.44146538 224.48061943 C98.55624869 206.69298842 98.55624869 206.69298842 102.0847168 199.00439453 C108.00511409 192.51704314 115.84608041 188.99128052 123.77784824 185.53279877 C129.24464198 183.00609697 134.29216026 179.80959757 139.3972168 176.62939453 C140.55292409 175.93293776 141.71000061 175.23873652 142.86962891 174.54882812 C148.32821828 171.27260543 153.77671748 167.98049248 159.21362305 164.66845703 C159.81823868 164.30035919 160.42285431 163.93226135 161.04579163 163.55300903 C163.94244347 161.78916131 166.83767791 160.02310953 169.73046875 158.25292969 C170.80385498 157.59856934 171.87724121 156.94420898 172.9831543 156.27001953 C174.62562134 155.22164917 174.62562134 155.22164917 176.30126953 154.15209961 C179.14134961 152.42760404 181.99925292 151.22608089 185.10449219 150.05004883 C190.47848794 147.83588012 195.40954389 145.65190339 199.0847168 141.00439453 C202.3127213 131.92362139 201.18876826 121.77889926 200.7722168 112.31689453 C200.72508492 109.66924894 200.68658708 107.02143473 200.65698242 104.37353516 C200.56601059 97.9118499 200.36753244 91.46037819 200.0847168 85.00439453 C191.08167615 90.39491508 182.093673 95.80863474 173.12924194 101.26318359 C160.50274231 108.94475842 147.84420272 116.57161872 135.15893555 124.15576172 C133.36298581 125.22967813 131.56742948 126.30424648 129.7722168 127.37939453 C129.19093018 127.72752197 128.60964355 128.07564941 128.01074219 128.43432617 C123.22863126 131.30461441 118.46667186 134.20744233 113.70654297 137.11401367 C109.76966663 139.5152677 105.82627664 141.90573987 101.88354492 144.29736328 C99.24882444 145.90430376 96.62672289 147.53006414 94.0065918 149.16064453 C92.49128362 150.08824563 90.97567836 151.01536165 89.4597168 151.94189453 C88.77989746 152.37300537 88.10007813 152.80411621 87.3996582 153.24829102 C82.72867464 156.0717072 82.72867464 156.0717072 79.63232422 155.74804688 C77.08010407 155.00304807 75.18298865 154.09323114 72.92456055 152.70361328 C72.14201904 152.22762695 71.35947754 151.75164062 70.55322266 151.26123047 C69.71799072 150.74334961 68.88275879 150.22546875 68.0222168 149.69189453 C66.2098134 148.5862674 64.39731078 147.48080292 62.5847168 146.37548828 C61.66432617 145.81071777 60.74393555 145.24594727 59.7956543 144.6640625 C55.71972054 142.16872769 51.62179783 139.71061808 47.5222168 137.25439453 C46.71647217 136.77059326 45.91072754 136.28679199 45.08056641 135.78833008 C37.35177022 131.15194699 29.59569912 126.56175166 21.83944702 121.9715271 C11.95614469 116.1218433 2.09781389 110.23199314 -7.74291992 104.31103516 C-11.06950513 102.31014911 -14.39870998 100.31363704 -17.7277832 98.31689453 C-20.12363202 96.87942034 -22.51946462 95.44191912 -24.9152832 94.00439453 C-26.2430004 93.20776217 -27.57071851 92.41113132 -28.8984375 91.61450195 C-32.5707194 89.41113281 -36.2430013 87.20776367 -39.9152832 85.00439453 C-40.25582422 92.77810596 -40.44474729 100.54528026 -40.53173828 108.32592773 C-40.57876585 110.96771327 -40.65967214 113.6091319 -40.77587891 116.2487793 C-41.97512969 130.49159086 -41.97512969 130.49159086 -37.08340454 143.25320435 C-32.60062362 146.91600496 -27.65044723 149.11082071 -22.24833679 151.08804321 C-18.79086951 152.44602946 -15.85691846 154.32092346 -12.7277832 156.31689453 C-4.13205691 161.50275463 4.55013112 166.5389263 13.2253418 171.59033203 C20.08465545 175.58461403 26.92888356 179.60402685 33.76538086 183.63720703 C36.50344284 185.25122251 39.2433843 186.86203019 41.9831543 188.47314453 C44.01706554 189.67096429 46.0509202 190.86888012 48.0847168 192.06689453 C49.06005371 192.63996338 50.03539062 193.21303223 51.0402832 193.8034668 C51.94182129 194.33512451 52.84335938 194.86678223 53.7722168 195.41455078 C54.58045898 195.89029541 55.38870117 196.36604004 56.22143555 196.85620117 C58.0847168 198.00439453 58.0847168 198.00439453 59.0847168 199.00439453 C59.18085813 200.67464122 59.20659402 202.34897729 59.20497131 204.02198792 C59.20703331 205.65218872 59.20703331 205.65218872 59.20913696 207.31532288 C59.20554169 208.51797287 59.20194641 209.72062286 59.19824219 210.9597168 C59.19838821 212.21807343 59.19853424 213.47643005 59.19868469 214.7729187 C59.19897265 218.23350706 59.19307629 221.69406105 59.18611073 225.15464139 C59.17987682 228.76747544 59.17927337 232.3803102 59.17808533 235.9931488 C59.17497212 242.83902961 59.16675888 249.68489453 59.15673584 256.53076833 C59.14557437 264.32266042 59.14006417 272.11455326 59.1350404 279.90645134 C59.12457626 295.93910839 59.10697702 311.97174944 59.0847168 328.00439453 C49.21917621 328.37631707 39.3553193 328.65997401 29.48417854 328.83338928 C24.89927562 328.9166613 20.31918959 329.02939108 15.73706055 329.21142578 C11.30806855 329.38626044 6.88368123 329.48111711 2.45150375 329.52243042 C0.76763203 329.55183258 -0.91600679 329.60926981 -2.59789658 329.69607544 C-13.29392982 330.22578216 -13.29392982 330.22578216 -17.9152832 328.00439453 C-22.10818437 324.11098324 -24.60666923 319.0367543 -27.00452232 313.91461277 C-28.21520892 311.37533416 -29.65750045 309.00346488 -31.13793945 306.61376953 C-32.08617687 304.99492735 -33.03277578 303.37512436 -33.9777832 301.75439453 C-39.12971163 292.97741335 -44.37478663 284.26070549 -49.6652832 275.56689453 C-50.03458954 274.95989716 -50.40389587 274.35289978 -50.78439331 273.72750854 C-52.55478449 270.81777358 -54.3253557 267.90814819 -56.09594727 264.99853516 C-59.31048162 259.70827089 -62.49322809 254.3993354 -65.67016602 249.08642578 C-74.72108182 233.95187481 -83.81793179 218.8465526 -92.97949219 203.77880859 C-97.34110694 196.60438542 -101.69459055 189.4259378 -105.9699707 182.19970703 C-107.37016701 179.89978618 -108.7965939 177.66519533 -110.2980957 175.43408203 C-110.87805298 174.55320923 -110.87805298 174.55320923 -111.46972656 173.65454102 C-112.5235156 172.06170971 -113.59940529 170.48356051 -114.67700195 168.90673828 C-115.9152832 166.00439453 -115.9152832 166.00439453 -115.2043457 163.1875 C-113.89207384 159.94708322 -112.36363289 157.14627154 -110.52856445 154.17236328 C-109.8449585 153.05667969 -109.16135254 151.94099609 -108.45703125 150.79150391 C-107.71395348 149.59163107 -106.97087067 148.39176136 -106.2277832 147.19189453 C-105.45988937 145.94168704 -104.6927284 144.69102914 -103.92626953 143.43994141 C-102.74878468 141.51795935 -101.57095304 139.59620394 -100.39097595 137.67575073 C-96.58401129 131.47829323 -92.83741363 125.2457312 -89.1027832 119.00439453 C-88.48943115 117.98063721 -87.8760791 116.95687988 -87.24414062 115.90209961 C-86.04325765 113.89762912 -84.84264795 111.89299488 -83.64233398 109.88818359 C-80.4473986 104.5533551 -77.24647555 99.222119 -74.04638672 93.89038086 C-71.91718756 90.34243577 -69.78870608 86.79408151 -67.6652832 83.24267578 C-64.4363259 77.84555644 -61.19543622 72.45654727 -57.9152832 67.09033203 C-50.09537721 54.29548954 -42.39100345 41.43719576 -34.75170898 28.53393555 C-34.36603256 27.88268204 -33.98035614 27.23142853 -33.58299255 26.56044006 C-32.54108607 24.80055935 -31.49999975 23.04019313 -30.45898438 21.27978516 C-29.87512876 20.35345307 -29.87512876 20.35345307 -29.27947807 19.40840721 C-27.77186403 16.85590855 -27.77186403 16.85590855 -26.36311531 13.37609291 C-20.41685913 0.37588064 -13.45943593 -0.19204295 0 0 Z " fill="#1C1C1A" transform="translate(129.915283203125,30.99560546875)"/>
<path d="M0 0 C0.8971875 0.5259375 0.8971875 0.5259375 1.8125 1.0625 C4.10813214 2.33304698 4.10813214 2.33304698 7 1 C7.33 2.65 7.66 4.3 8 6 C6.68 6.33 5.36 6.66 4 7 C2.02 3.535 2.02 3.535 0 0 Z " fill="#262626" transform="translate(79,304)"/>
<path d="M0 0 C2.64 0 5.28 0 8 0 C4.80009492 2.74277578 1.99500618 4.6302836 -2 6 C-1.34 4.02 -0.68 2.04 0 0 Z " fill="#252524" transform="translate(307,124)"/>
<path d="M0 0 C3 2 3 2 3.8125 4 C3.874375 4.66 3.93625 5.32 4 6 C3.34 6.66 2.68 7.32 2 8 C0.02 4.535 0.02 4.535 -2 1 C-1.34 0.67 -0.68 0.34 0 0 Z " fill="#2D2D2D" transform="translate(34,225)"/>
<path d="M0 0 C1.98 0.99 3.96 1.98 6 3 C5.01 4.485 5.01 4.485 4 6 C3.01 6 2.02 6 1 6 C0.67 4.02 0.34 2.04 0 0 Z " fill="#333332" transform="translate(138,200)"/>
</svg>
