<?xml version="1.0" encoding="UTF-8"?>
<svg version="1.1" xmlns="http://www.w3.org/2000/svg" width="4500" height="1244">
<path d="M0 0 C1.16929668 -0.00869515 1.16929668 -0.00869515 2.36221552 -0.01756597 C3.71270266 -0.03844025 3.71270266 -0.03844025 5.09047237 -0.05973623 C6.08788787 -0.05985891 7.08530337 -0.0599816 8.11294359 -0.06010801 C9.69921342 -0.07788336 9.69921342 -0.07788336 11.31752911 -0.09601781 C14.90306219 -0.13236748 18.48836579 -0.14707379 22.07404798 -0.16193086 C24.65404322 -0.18326635 27.23402845 -0.20584384 29.81400287 -0.22956455 C36.18820723 -0.28555964 42.56241891 -0.32495186 48.93677329 -0.35916001 C54.23855556 -0.38806056 59.54025287 -0.4239326 64.84195989 -0.46428949 C65.9880206 -0.47300229 65.9880206 -0.47300229 67.15723405 -0.48189111 C68.71539803 -0.49375056 70.27356198 -0.50561426 71.83172589 -0.51748215 C127.96082348 -0.94083087 184.09236827 -1.14054724 240.22275771 -1.30179512 C248.69324512 -1.32618296 257.16372974 -1.35149881 265.63421338 -1.37715608 C266.57018592 -1.37996868 267.50615845 -1.38278127 268.47049379 -1.3856791 C298.7982807 -1.47750321 329.12441689 -1.66792415 359.45132569 -1.9126732 C390.62834975 -2.16382434 421.80448254 -2.32359178 452.98252573 -2.36564754 C457.3887817 -2.37161464 461.79503559 -2.37857995 466.20128911 -2.38613016 C467.06846842 -2.3875785 467.93564773 -2.38902684 468.8291052 -2.39051908 C482.77237825 -2.4163961 496.71326419 -2.53748648 510.65561517 -2.69393235 C524.68125341 -2.84914522 538.70433147 -2.90124245 552.73075736 -2.84932994 C560.32824026 -2.82399924 567.91901376 -2.84383449 575.5152902 -2.99087984 C621.28821605 -3.8425982 621.28821605 -3.8425982 630.16230934 3.14881128 C636.45736144 9.2462018 639.56196979 16.83488716 642.0501793 25.10650164 C643.4929035 29.58681734 645.73935663 33.24268661 648.32537549 37.13724821 C649.05419687 38.35454724 649.77724991 39.57534177 650.49139112 40.80131071 C657.12131547 52.04288458 663.81251795 63.24414775 670.60662549 74.38724821 C677.08989336 85.02053666 683.47139892 95.71091552 689.81463331 106.42826384 C695.3536762 115.78408852 700.94658688 125.10414833 706.60662549 134.38724821 C713.08989336 145.02053666 719.47139892 155.71091552 725.81463331 166.42826384 C731.3536762 175.78408852 736.94658688 185.10414833 742.60662549 194.38724821 C749.08989336 205.02053666 755.47139892 215.71091552 761.81463331 226.42826384 C767.3536762 235.78408852 772.94658688 245.10414833 778.60662549 254.38724821 C785.08989336 265.02053666 791.47139892 275.71091552 797.81463331 286.42826384 C803.3536762 295.78408852 808.94658688 305.10414833 814.60662549 314.38724821 C821.08925924 325.01949663 827.47088217 335.70841642 833.81261915 346.4252426 C839.38968094 355.84736909 845.02819082 365.22862822 850.73162549 374.57474821 C856.82316304 384.55763007 862.78103002 394.61128285 868.67168897 404.71384734 C874.19364779 414.17929376 879.82606167 423.5707561 885.53435987 432.92484587 C891.29700364 442.37036225 896.97189505 451.86491525 902.60662549 461.38724821 C908.37761572 471.13925028 914.18963707 480.86353195 920.08401197 490.54151457 C921.15257422 492.2975485 922.21854972 494.05512442 923.28362745 495.8132736 C926.31043389 500.80635978 929.35007156 505.78806018 932.45818799 510.73099821 C933.40365008 512.26215585 934.34897538 513.79339798 935.29412549 515.32474821 C935.72281934 515.98660124 936.15151319 516.64845427 936.59319776 517.33036345 C937.71209424 519.16459196 937.71209424 519.16459196 939.10662549 522.38724821 C937.87516266 526.5541851 935.57649951 530.18644792 933.35271924 533.89115446 C932.98030607 534.51779494 932.60789289 535.14443541 932.22419446 535.79006499 C931.00114797 537.84548861 929.77276728 539.89766511 928.54412549 541.94974821 C927.68195815 543.39559956 926.81998159 544.84156469 925.95818799 546.28763884 C920.21164937 555.918868 914.40612435 565.51349599 908.56875318 575.08991545 C902.84479557 584.48143414 897.20850982 593.92246386 891.60662549 603.38724821 C885.32615692 613.9985492 878.98370049 624.56824049 872.56463331 635.09623259 C866.84210613 644.4856738 861.20722668 653.92463182 855.60662549 663.38724821 C849.32615692 673.9985492 842.98370049 684.56824049 836.56463331 695.09623259 C830.84210613 704.4856738 825.20722668 713.92463182 819.60662549 723.38724821 C813.32615692 733.9985492 806.98370049 744.56824049 800.56463331 755.09623259 C794.84210613 764.4856738 789.20722668 773.92463182 783.60662549 783.38724821 C777.32615692 793.9985492 770.98370049 804.56824049 764.56463331 815.09623259 C758.43127135 825.15976567 752.40246434 835.28281696 746.40063184 845.4252426 C740.82357004 854.84736909 735.18506017 864.22862822 729.48162549 873.57474821 C723.7573609 882.95573894 718.14216856 892.39371256 712.60662549 901.88724821 C706.73156389 911.96306303 700.75454356 921.96877905 694.67889112 931.92484587 C688.91624634 941.3703639 683.24147413 950.86498427 677.60662549 960.38724821 C670.99393715 971.56042856 664.30576478 982.6833307 657.54485792 993.76737517 C653.66753936 1000.1317053 649.82938538 1006.51758756 646.03240674 1012.93021696 C645.60527387 1013.6514575 645.178141 1014.37269804 644.7380647 1015.11579436 C642.66270439 1018.62243764 640.59125128 1022.13132844 638.52459424 1025.64310759 C637.76681847 1026.9263324 637.00900765 1028.20953652 636.25115674 1029.49271696 C635.59478223 1030.60799773 634.93840772 1031.72327849 634.26214307 1032.87235564 C633.91719301 1033.42606968 633.57224294 1033.97978373 633.21683985 1034.55027699 C632.4062703 1035.89145307 631.65326293 1037.26789862 630.93598538 1038.66120016 C627.43983235 1044.87663264 627.43983235 1044.87663264 623.94725626 1046.21428233 C621.28897468 1046.52418614 618.75946784 1046.54449058 616.08395093 1046.46953886 C615.07835406 1046.47722869 614.07275718 1046.48491851 613.03668767 1046.49284136 C609.66806802 1046.50766339 606.30348622 1046.45818468 602.93523877 1046.40897673 C600.52059232 1046.40643798 598.10593892 1046.40786322 595.69129651 1046.41295927 C590.49354882 1046.41500843 585.29671365 1046.38949303 580.09924405 1046.33881873 C572.58473525 1046.26560153 565.07071779 1046.24222866 557.55589096 1046.2309268 C545.36321352 1046.21124026 533.1710787 1046.1513772 520.97869581 1046.06620329 C509.13660099 1045.98356257 497.29465367 1045.91987161 485.45232862 1045.88163298 C484.35697226 1045.87808621 484.35697226 1045.87808621 483.23948748 1045.87446779 C479.57601476 1045.86272226 475.91254099 1045.85134893 472.24906653 1045.84016066 C441.8678644 1045.74689493 411.48732033 1045.58773796 381.10662549 1045.38724821 C380.37351304 993.35290053 379.80998685 941.31907635 379.47253495 889.28057639 C379.43251434 883.13131077 379.39109583 876.98205531 379.34881299 870.83280485 C379.34041906 869.60864608 379.33202513 868.38448731 379.32337683 867.12323282 C379.18428673 847.32427985 378.93207805 827.52831267 378.63773602 807.73112865 C378.33803664 787.40343039 378.16065457 767.07729091 378.09579366 746.74747419 C378.05196736 734.20978185 377.91383477 721.68052727 377.65329855 709.14543489 C377.48357029 700.53869271 377.43313731 691.93628266 377.47458142 683.32799019 C377.49501374 678.36403632 377.46476392 673.41475521 377.2920503 668.45344656 C376.35854678 640.24956799 376.35854678 640.24956799 382.52651399 632.63415166 C389.94494269 625.35651268 399.57314509 621.20673662 409.01623624 617.22112447 C415.52126201 614.41430679 421.38559337 610.54677993 427.35662549 606.76224821 C429.65329191 605.3521151 431.95801182 603.95587068 434.26287549 602.55912321 C435.40500703 601.86349525 436.54695866 601.16757174 437.68865674 600.47123259 C438.25278272 600.1272946 438.8169087 599.78335661 439.3981294 599.42899626 C439.96193311 599.08521941 440.52573682 598.74144255 441.10662549 598.38724821 C445.68862801 595.59339215 450.27152103 592.80101128 454.85662549 590.01224821 C455.42804273 589.6646646 455.99945997 589.31708098 456.58819288 588.95896452 C466.73143494 582.79316414 476.93173203 576.72609441 487.14654249 570.67978972 C496.50274284 565.14057601 505.82317513 559.54750052 515.10662549 553.88724821 C525.73991394 547.40398034 536.4302928 541.02247479 547.14764112 534.6792404 C556.5034658 529.1401975 565.82352561 523.54728683 575.10662549 517.88724821 C585.73991394 511.40398034 596.4302928 505.02247479 607.14764112 498.6792404 C616.50346343 493.14019891 625.82362344 487.5474451 635.10662549 481.88724821 C646.68744066 474.82663019 658.33295491 467.87969522 670.01092237 460.98099821 C671.28116516 460.22979843 672.55134864 459.47849833 673.82146924 458.72709196 C674.43130658 458.36686949 675.04114393 458.00664702 675.66946119 457.63550871 C678.75541805 455.80637078 681.82203618 453.95183537 684.86492627 452.051799 C685.46406339 451.67817732 686.06320051 451.30455565 686.68049329 450.91961211 C688.32212985 449.8918265 689.9597535 448.85763922 691.59710401 447.82303923 C694.10662549 446.38724821 694.10662549 446.38724821 696.10662549 446.38724821 C696.10662549 387.31724821 696.10662549 328.24724821 696.10662549 267.38724821 C678.2429079 277.92979196 678.2429079 277.92979196 660.48162549 288.63724821 C659.31179768 289.34923547 658.14187274 290.06106316 656.97185987 290.77274626 C654.56033886 292.23980176 652.14921748 293.70751025 649.73846143 295.17582243 C643.69723566 298.85493828 637.65222565 302.52782616 631.60662549 306.19974821 C631.01677869 306.55806731 630.42693189 306.9163864 629.81921094 307.28556364 C621.80951695 312.15053143 613.78437253 316.98881161 605.74334424 321.801799 C595.04415571 328.21223768 584.39339453 334.70287373 573.73553174 341.18168181 C570.18283206 343.3411776 566.62926272 345.49923868 563.07537549 347.65677946 C562.49971341 348.00626143 561.92405134 348.35574339 561.33094495 348.71581572 C559.00794411 350.12605145 556.6849043 351.53622298 554.361844 352.94636076 C548.50008416 356.50458776 542.63858588 360.06323667 536.77962964 363.62607878 C524.05335073 371.36487577 511.31119174 379.07529988 498.53289502 386.72806853 C487.21090081 393.51376113 475.93308077 400.37177881 464.65496534 407.23002165 C458.2256481 411.13933274 451.79273461 415.04272478 445.36047071 418.94718474 C443.61307261 420.00789782 441.86569876 421.06865084 440.11834424 422.12943571 C439.54144849 422.47965788 438.96455274 422.82988005 438.3701753 423.19071501 C434.83921452 425.3345566 431.30910751 427.47979677 427.77962964 429.62607878 C415.05335073 437.36487577 402.31119174 445.07529988 389.53289502 452.72806853 C378.83630124 459.13893537 368.179154 465.61422679 357.52425855 472.09403532 C353.14865763 474.75479167 348.77067287 477.41159824 344.39178174 480.06693571 C342.49232376 481.21903358 340.59288556 482.37116404 338.693448 483.52329558 C337.48714704 484.25486443 336.28074952 484.98627412 335.07424634 485.71750944 C333.3920296 486.73713351 331.71025813 487.75749208 330.02850049 488.77787321 C329.00305127 489.39468962 327.97760206 490.01150603 326.92107862 490.64701384 C325.15760567 491.73740551 323.41683787 492.86643945 321.71404737 494.04935759 C319.62225049 495.49662321 319.62225049 495.49662321 316.10662549 497.38724821 C312.17297643 496.26014333 308.77290651 494.1347163 305.25896924 492.07084196 C304.41909467 491.57894629 304.41909467 491.57894629 303.56225294 491.07711333 C301.72063945 489.99674867 299.8822826 488.91098173 298.04412549 487.82474821 C296.74053278 487.05759576 295.43690258 486.29050699 294.13323682 485.52347868 C284.32647917 479.74302246 274.58915266 473.8526274 264.87127393 467.92411345 C254.4237279 461.55471488 243.90842097 455.30202036 233.37884229 449.06937712 C232.11491264 448.32119051 230.85099648 447.57298112 229.58709424 446.82474821 C228.96649122 446.45739561 228.34588819 446.09004301 227.70647901 445.71155852 C222.70290984 442.74700902 217.71558175 439.75590973 212.73086255 436.75980681 C208.37147195 434.14140593 204.00227419 431.54008876 199.62615674 428.94974821 C199.00399778 428.58143889 198.38183881 428.21312956 197.74082654 427.83365935 C196.46148108 427.07636338 195.18212816 426.31908002 193.90276807 425.56180876 C182.35912952 418.72655398 170.85558882 411.83121469 159.40121168 404.84745329 C150.01058205 399.12418895 140.57044542 393.48856173 131.10662549 387.88724821 C120.49532451 381.60677964 109.92563322 375.26432321 99.39764112 368.84525603 C89.33410804 362.71189407 79.21105674 356.68308706 69.06863111 350.68125456 C59.64650462 345.10419276 50.26524549 339.46568289 40.91912549 333.76224821 C31.53813477 328.03798362 22.10016115 322.42279128 12.60662549 316.88724821 C2.53693045 311.01575496 -7.46278387 305.04248765 -17.41284472 298.97059172 C-28.57632401 292.15997309 -39.80857319 285.46882305 -51.06061083 278.80570525 C-51.70829928 278.42215376 -52.35598773 278.03860228 -53.0233031 277.64342802 C-54.77019475 276.60932278 -56.51755666 275.57601204 -58.26495654 274.54276579 C-62.8164723 271.83886775 -67.3537321 269.11103366 -71.89337451 266.38724821 C-71.89337451 325.78724821 -71.89337451 385.18724821 -71.89337451 446.38724821 C-69.91337451 447.04724821 -67.93337451 447.70724821 -65.89337451 448.38724821 C-63.83966098 449.51693151 -61.82216937 450.71335493 -59.83087451 451.94974821 C-58.50906497 452.76015052 -57.18603185 453.56855877 -55.86212451 454.37552946 C-55.09771044 454.84168669 -54.33329638 455.30784392 -53.54571826 455.78812712 C-48.63402007 458.74943263 -43.67749054 461.63493095 -38.7261687 464.52930754 C-35.5400818 466.39181273 -32.35535956 468.25664762 -29.17071826 470.12162321 C-28.5443497 470.48839674 -27.91798113 470.85517027 -27.27263171 471.23305815 C-21.80422521 474.43651959 -16.3468867 477.65849839 -10.89337451 480.88724821 C-2.40704276 485.91066157 6.09691605 490.90358837 14.60662549 495.88724821 C23.98985586 501.3824803 33.36240642 506.89515441 42.71990674 512.43412321 C50.33656673 516.93943893 57.97043439 521.4151591 65.60662549 525.88724821 C74.99354079 531.38463836 84.36985614 536.89933647 93.73089307 542.44071501 C101.23924882 546.88217146 108.7657493 551.29236288 116.29412549 555.69974821 C126.86011305 561.88566375 137.40216497 568.11029435 147.93035596 574.36039275 C156.86119671 579.65839332 165.81525277 584.91588266 174.77654737 590.16215056 C183.4268283 595.22645524 192.06547295 600.30982187 200.69036573 605.41727751 C205.99566006 608.55634543 211.30945377 611.68048655 216.63006299 614.79349821 C217.28001233 615.1738925 217.92996168 615.55428679 218.59960645 615.94620818 C221.80283749 617.82073339 225.00684573 619.69390921 228.21209424 621.56498259 C229.39310845 622.25569569 230.5740991 622.94644908 231.75506299 623.63724821 C232.78808545 624.24052946 233.82110792 624.84381071 234.88543409 625.46537321 C235.94842725 626.09959196 237.01142042 626.73381071 238.10662549 627.38724821 C238.7767723 627.62124364 239.4469191 627.85523907 240.13737338 628.09632527 C242.77588571 629.21341392 244.24061155 630.18940528 246.10662549 632.38724821 C247.3562172 637.77667755 247.15145283 643.1706114 247.06866163 648.66759795 C247.07214958 650.37546617 247.07915305 652.08333023 247.08937496 653.79117143 C247.10729268 658.48927132 247.07522711 663.18591661 247.03515046 667.88383108 C247.00065323 672.94786681 247.01229012 678.01181825 247.01836866 683.0759384 C247.02256673 691.85142875 246.99743355 700.62644384 246.95246595 709.40181464 C246.88749276 722.08949604 246.86661886 734.77694727 246.85656201 747.46477701 C246.83904613 768.04900908 246.78578813 788.63298775 246.71014112 809.2170822 C246.63672663 829.21446512 246.5800906 849.21177925 246.54607862 869.2092697 C246.54397683 870.44158525 246.54187504 871.67390081 246.53970956 872.94355926 C246.52926938 879.12562708 246.51915969 885.30769539 246.50921434 891.48976403 C246.42625921 942.78910057 246.28533536 994.08816205 246.10662549 1045.38724821 C214.8033461 1046.02722661 183.50180938 1046.52212463 152.19353306 1046.81707744 C148.49015534 1046.85209353 144.78679055 1046.88833491 141.08343213 1046.92533415 C140.34621895 1046.93267884 139.60900576 1046.94002354 138.84945278 1046.94759079 C126.94110331 1047.0691476 115.0365723 1047.28973345 103.13048184 1047.5475265 C90.89599456 1047.81020289 78.66349361 1047.96505951 66.42630279 1048.02172607 C59.55812453 1048.05657524 52.69794712 1048.14041736 45.83262533 1048.3476898 C2.80342421 1049.60981895 2.80342421 1049.60981895 -5.82193667 1042.64635771 C-12.01261982 1036.51519826 -15.16478025 1028.86134297 -17.77833468 1020.67591875 C-19.28700782 1016.22627598 -21.53980351 1012.53534815 -24.11212451 1008.63724821 C-24.84073325 1007.41948046 -25.56388574 1006.19841084 -26.27862841 1004.97245329 C-32.94668025 993.66630742 -39.68089309 982.40421103 -46.51837451 971.19974821 C-52.60991205 961.21686636 -58.56777904 951.16321358 -64.45843798 941.06064909 C-69.9803968 931.59520267 -75.61281068 922.20374033 -81.32110888 912.84965056 C-87.08375366 903.40413253 -92.75852587 893.90951216 -98.39337451 884.38724821 C-104.33368526 874.35015589 -110.3217177 864.34544822 -116.39337451 854.38724821 C-122.87664238 843.75395977 -129.25814793 833.06358091 -135.60138232 822.34623259 C-141.14042522 812.9904079 -146.73333589 803.6703481 -152.39337451 794.38724821 C-158.87664238 783.75395977 -165.25814793 773.06358091 -171.60138232 762.34623259 C-177.14042522 752.9904079 -182.73333589 743.6703481 -188.39337451 734.38724821 C-194.87664238 723.75395977 -201.25814793 713.06358091 -207.60138232 702.34623259 C-213.14042522 692.9904079 -218.73333589 683.6703481 -224.39337451 674.38724821 C-230.87664238 663.75395977 -237.25814793 653.06358091 -243.60138232 642.34623259 C-249.14042522 632.9904079 -254.73333589 623.6703481 -260.39337451 614.38724821 C-266.87358245 603.75897839 -273.25255734 593.07391676 -279.5923186 582.36133879 C-284.96484276 573.28569718 -290.38499236 564.24161504 -295.87185961 555.23462981 C-296.94024714 553.47547942 -298.00193951 551.71246536 -299.0615874 549.94803923 C-302.06186122 544.96685476 -305.08561364 540.04345484 -308.38556201 535.25443571 C-309.14340991 534.11156096 -309.14340991 534.11156096 -309.91656787 532.94559782 C-310.8172226 531.59500441 -311.7527258 530.26656917 -312.73150927 528.97147673 C-313.88946826 527.19584196 -313.88946826 527.19584196 -314.89337451 523.38724821 C-313.51126688 519.34861126 -311.19610083 515.95970999 -308.89337451 512.38724821 C-307.86833742 510.64484651 -306.84363036 508.90222381 -305.82899768 507.15374297 C-303.93814723 503.90415344 -302.00601244 500.67909931 -300.08087451 497.44974821 C-299.23710312 496.03114114 -298.39335351 494.61252112 -297.54962451 493.19388884 C-291.87159213 483.65729739 -286.13157329 474.15973132 -280.35440356 464.68293303 C-274.63083207 455.29195372 -268.99492175 445.85146304 -263.39337451 436.38724821 C-257.11290593 425.77594723 -250.7704495 415.20625594 -244.35138232 404.67826384 C-238.21802037 394.61473076 -232.18921336 384.49167946 -226.18738085 374.34925383 C-220.61031906 364.92712734 -214.97180918 355.54586821 -209.26837451 346.19974821 C-203.54410991 336.81875749 -197.92891757 327.38078387 -192.39337451 317.88724821 C-186.5183129 307.81143339 -180.54129257 297.80571738 -174.46564013 287.84965056 C-168.70299536 278.40413253 -163.02822314 268.90951216 -157.39337451 259.38724821 C-151.11314424 248.77580824 -144.77044751 238.20625267 -138.35138232 227.67826384 C-132.62885515 218.28882262 -126.99397569 208.84986461 -121.39337451 199.38724821 C-115.11290593 188.77594723 -108.7704495 178.20625594 -102.35138232 167.67826384 C-96.62885515 158.28882262 -90.99397569 148.84986461 -85.39337451 139.38724821 C-79.11290593 128.77594723 -72.7704495 118.20625594 -66.35138232 107.67826384 C-60.62885515 98.28882262 -54.99397569 88.84986461 -49.39337451 79.38724821 C-43.45284074 69.3502914 -37.46531672 59.3452763 -31.39337451 49.38724821 C-24.15432431 37.51499928 -17.03716413 25.57327318 -9.95978076 13.60404509 C-9.56906893 12.94380843 -9.17835711 12.28357176 -8.77580554 11.60332793 C-8.04402646 10.36644032 -7.3129928 9.12911129 -6.58284289 7.89126128 C-2.17830643 0.44552479 -2.17830643 0.44552479 0 0 Z " fill="#1C1C1B" transform="translate(432.89337450638413,91.61275178566575)"/>
<path d="M0 0 C34.2375 -0.020625 68.475 -0.04125 103.75 -0.0625 C114.53139648 -0.071604 125.31279297 -0.08070801 136.42089844 -0.09008789 C149.66064453 -0.09460449 149.66064453 -0.09460449 155.87310791 -0.09544373 C160.18056766 -0.09636944 164.48801488 -0.10009313 168.79547119 -0.10557556 C174.31298163 -0.11250362 179.83047422 -0.11447854 185.34798861 -0.11307228 C187.35848608 -0.11336575 189.36898428 -0.11530741 191.37947798 -0.11921513 C226.17134631 -0.18362314 226.17134631 -0.18362314 241.625 2.6875 C243.06117676 2.95022705 243.06117676 2.95022705 244.52636719 3.21826172 C264.52726166 7.08199524 284.93116262 14.89411077 300 29 C301.38251953 30.26457031 301.38251953 30.26457031 302.79296875 31.5546875 C319.33812099 47.31835482 328.47502978 69.01162332 329.203125 91.8125 C329.60463545 118.29440139 323.06544922 142.06251815 304.484375 161.63671875 C284.65967998 180.49511574 260.41534096 188.31251778 234 193 C235.25103516 194.32451172 235.25103516 194.32451172 236.52734375 195.67578125 C241.67928987 201.15971435 246.79755056 206.61974079 251.5 212.5 C256.06041926 218.19631705 261.01734663 223.47319066 266.00390625 228.79296875 C270.38116714 233.4639332 274.5514289 238.29747541 278.69921875 243.171875 C284.53018213 250.01518479 290.45408334 256.73983217 296.5546875 263.34375 C300.71504527 267.86298847 304.72685535 272.50178609 308.70703125 277.1796875 C313.65802601 282.99221677 318.63400248 288.76315918 323.8125 294.375 C330.20150862 301.29873084 330.20150862 301.29873084 333 304.4375 C333.515625 305.01371094 334.03125 305.58992188 334.5625 306.18359375 C336.26776418 308.33834332 337.60333489 310.63635709 339 313 C331.95810481 313.35755009 324.91857419 313.60114241 317.86962891 313.76904297 C315.47713811 313.83907811 313.08523868 313.93434988 310.69482422 314.05615234 C289.74496064 315.09621649 289.74496064 315.09621649 283.90795898 310.08276367 C281.20805832 307.20176985 279.05467864 304.06120195 277.03082275 300.67895508 C275.71403986 298.53424172 274.14326045 296.72729095 272.44140625 294.87890625 C271.96050537 294.32452881 271.47960449 293.77015137 270.98413086 293.19897461 C270.51499268 292.65893799 270.04585449 292.11890137 269.5625 291.5625 C269.03084229 290.94963135 268.49918457 290.3367627 267.95141602 289.70532227 C266.30133449 287.8032089 264.65074347 285.90153891 263 284 C260.81201001 281.47959136 258.62444706 278.95881365 256.4375 276.4375 C255.90165283 275.81987793 255.36580566 275.20225586 254.8137207 274.56591797 C250.60079881 269.70509927 246.42129243 264.81628267 242.24462891 259.92431641 C239.31737077 256.50609717 236.34190319 253.14116832 233.3125 249.8125 C230.28287132 246.47772886 227.39391908 243.06712361 224.5625 239.5625 C220.70174863 234.788597 216.62562925 230.26611572 212.46875 225.75 C210.05621896 223.06262366 207.7674379 220.31034556 205.5 217.5 C201.62627442 212.69905287 197.54979153 208.13139249 193.359375 203.60546875 C191 201 191 201 189.23713684 197.88546753 C187.28268552 195.56649438 186.19984892 195.0396831 183.18356895 194.44075394 C179.39814546 194.21803817 175.63580146 194.19167749 171.84643555 194.22705078 C170.38757189 194.21887727 168.92872094 194.20807328 167.46989441 194.19483948 C163.51550748 194.16641001 159.56195353 194.17475263 155.60752463 194.18970728 C151.47278386 194.19908727 147.33824638 194.17463675 143.2035675 194.15377808 C135.37672797 194.11943172 127.55018058 194.11550126 119.72328073 194.12250316 C109.14491293 194.13020821 98.5667264 194.0909193 87.9884367 194.05426407 C71.3255113 193.99776354 54.66321187 194.004043 38 194 C38 233.27 38 272.54 38 313 C25.46 313 12.92 313 0 313 C0 209.71 0 106.42 0 0 Z M38 36 C38 76.26 38 116.52 38 158 C69.85936391 158.08749841 69.85936391 158.08749841 101.71875 158.14648438 C114.72334367 158.16423925 127.72787875 158.18503595 140.73242188 158.22631836 C150.20635916 158.25637846 159.6802486 158.27561212 169.15423226 158.28226548 C174.16279546 158.28614982 179.17122189 158.29516959 184.17974091 158.31719017 C188.9108052 158.3378189 193.64167866 158.34378157 198.37278366 158.33932304 C200.0930549 158.34013662 201.8133337 158.345943 203.53356552 158.35761642 C228.44638604 158.51812966 256.10664798 155.18762632 275.00390625 137.2265625 C285.50447082 125.51360397 290.69364364 110.42165429 290.2421875 94.74609375 C288.84719651 78.92869588 283.9299427 65.45587334 272.0703125 54.46875 C245.68826609 33.25570505 210.55748992 35.55256839 178.62402582 35.69581819 C173.66601987 35.71480073 168.70800617 35.71635217 163.74996948 35.71989441 C154.39729372 35.72915239 145.04472542 35.75367988 135.69209659 35.78394288 C123.02841228 35.82401455 110.36469778 35.83999235 97.70096588 35.85744953 C77.80056372 35.88550684 57.90038811 35.94531748 38 36 Z " fill="#1C1C1B" transform="translate(2343,546)"/>
<path d="M0 0 C98.01 0 196.02 0 297 0 C297 11.88 297 23.76 297 36 C211.53 36 126.06 36 38 36 C38 69 38 102 38 136 C110.6 136 183.2 136 258 136 C258 147.88 258 159.76 258 172 C185.4 172 112.8 172 38 172 C38 206.65 38 241.3 38 277 C125.12 277 212.24 277 302 277 C302 288.88 302 300.76 302 313 C202.34 313 102.68 313 0 313 C0 209.71 0 106.42 0 0 Z " fill="#1C1C1B" transform="translate(3725,546)"/>
<path d="M0 0 C44.71770228 0 44.71770228 0 57.33924294 11.33724976 C58.100119 12.2074173 58.86099506 13.07758484 59.64492798 13.97412109 C60.54350362 14.97670624 61.44330637 15.97819264 62.34419632 16.97869873 C63.01830701 17.73963963 63.01830701 17.73963963 63.70603609 18.51595306 C66.10323672 21.17257301 68.62368058 23.7078289 71.13070679 26.26025391 C75.83428558 31.08450344 80.42356389 36.00301654 84.97756898 40.96824646 C90.15093727 46.5974956 95.44729366 52.10451815 100.7551434 57.6066494 C109.02265846 66.18242736 117.21908609 74.82017464 125.31884766 83.5546875 C126.48890602 84.81597221 126.48890602 84.81597221 127.68260193 86.10273743 C131.0080299 89.70325284 134.29563732 93.32346901 137.4949646 97.03662109 C141.38715451 101.51049687 145.55631436 105.68158781 149.76171875 109.859375 C150.6098111 110.70600708 151.45790344 111.55263916 152.33169556 112.42492676 C154.63572578 114.72418921 156.94193269 117.02124166 159.24899673 119.31745911 C161.67682877 121.73522816 164.10135471 124.15630749 166.52612305 126.57714844 C172.68110657 132.72108483 178.84032307 138.86076959 185 145 C191.652528 151.63044551 198.30429574 158.26164349 204.95117283 164.89775467 C207.35810175 167.3005431 209.76608563 169.70225382 212.17660522 172.10144043 C214.86609403 174.7789096 217.55248465 177.45945287 220.23828125 180.140625 C221.41833237 181.31292664 221.41833237 181.31292664 222.6222229 182.50891113 C223.36217499 183.24879272 224.10212708 183.98867432 224.86450195 184.75097656 C225.49789993 185.38215393 226.13129791 186.0133313 226.78388977 186.66363525 C229.96065025 190.01277876 232.96026332 193.52601522 236 197 C255.14 216.14 274.28 235.28 294 255 C294.33 170.85 294.66 86.7 295 0 C307.21 0 319.42 0 332 0 C332 103.29 332 206.58 332 313 C294.91696145 313 294.91696145 313 281.27388477 300.42549133 C280.39925429 299.46048203 279.52462381 298.49547272 278.62348938 297.5012207 C277.59792807 296.389717 276.57137978 295.27912332 275.54395485 294.16934204 C275.02931183 293.60682865 274.51466881 293.04431526 273.98443055 292.46475601 C271.27379444 289.54125038 268.46289254 286.71705551 265.6627655 283.87963867 C260.39436232 278.51165402 255.21877544 273.06304491 250.07273835 267.57792759 C244.22891566 261.35826256 238.28371794 255.23957661 232.32954562 249.12577438 C223.05766428 239.60023629 213.84218871 230.0230468 204.71020508 220.36328125 C203.82566147 219.42891739 202.94111786 218.49455353 202.0297699 217.53187561 C198.47073358 213.75550465 194.94576289 209.97111778 191.56694031 206.03222656 C187.04160688 200.81237113 182.11396581 195.99041792 177.21875 191.12109375 C176.14512119 190.04938803 175.07172273 188.97745152 173.99853516 187.90530396 C171.70122402 185.61113509 169.40237339 183.31852449 167.10229492 181.02713013 C163.45929461 177.39774218 159.82019199 173.76446259 156.18164062 170.13061523 C148.45739562 162.41743337 140.72892317 154.70849372 133 147 C124.65372405 138.67578532 116.30819485 130.35083002 107.96755219 122.02097034 C104.3564704 118.41484616 100.74297062 114.81116849 97.12754822 111.20939636 C94.87272878 108.96207884 92.62002135 106.71265311 90.36785889 104.46267319 C89.32997265 103.42664602 88.29122893 102.39147699 87.25152588 101.3572731 C85.82222679 99.93529128 84.39640259 98.50981934 82.97070312 97.08422852 C82.17506958 96.29081558 81.37943604 95.49740265 80.55969238 94.6799469 C77.25966322 91.22488215 74.14622344 87.59568393 71 84 C60.11 73.11 49.22 62.22 38 51 C37.67 137.46 37.34 223.92 37 313 C24.79 313 12.58 313 0 313 C0 209.71 0 106.42 0 0 Z " fill="#1C1C1B" transform="translate(3289,546)"/>
<path d="M0 0 C1.09565277 0.00142502 2.19130554 0.00285004 3.32015991 0.00431824 C5.18579086 -0.00029671 5.18579086 -0.00029671 7.08911133 -0.00500488 C8.46088841 0.00190965 9.83266375 0.00917781 11.20443726 0.01676941 C12.62381956 0.01796384 14.04320267 0.01841382 15.46258545 0.01815796 C18.45715205 0.01972702 21.45159985 0.02802868 24.44613647 0.04142761 C28.20893762 0.05808335 31.97160548 0.06215529 35.7344389 0.06161976 C49.43426245 0.06206349 63.12711186 0.12782401 76.81771851 0.68473816 C78.18623459 0.74012505 78.18623459 0.74012505 79.58239746 0.79663086 C125.4494339 2.93621117 171.07760313 16.94712423 205.41537476 48.24723816 C206.36154663 49.10962097 207.30771851 49.97200378 208.28256226 50.86051941 C234.97930306 76.38502372 248.74154803 113.03918912 249.61849976 149.61051941 C250.0620903 188.75598137 241.35575453 225.03203924 215.41537476 255.24723816 C214.64451538 256.15216003 213.87365601 257.05708191 213.07943726 257.98942566 C181.12419496 294.38009591 131.05130885 309.47781114 84.22915077 313.0296154 C77.26665271 313.42691142 70.30513031 313.37741594 63.33407593 313.36076355 C61.65730287 313.36048083 59.9805297 313.36064107 58.30375671 313.36120605 C53.79226265 313.36149071 49.28079567 313.35564804 44.76930785 313.3486321 C40.03945923 313.3423429 35.30960985 313.34179038 30.57975769 313.34060669 C21.64119456 313.33750969 12.70264378 313.32931846 3.76408607 313.3192572 C-6.41981681 313.30804519 -16.6037203 313.30257283 -26.78762782 313.29756176 C-47.71996717 313.28713434 -68.65229542 313.26956675 -89.58462524 313.24723816 C-89.98431318 291.71400926 -90.28276271 270.18140403 -90.46543217 248.64519978 C-90.55256006 238.64205177 -90.67101013 228.64122697 -90.86709595 218.63957214 C-91.03821418 209.90715485 -91.14659956 201.17642154 -91.18412966 192.44237393 C-91.20602272 187.8299638 -91.25625386 183.22236433 -91.38203621 178.61152077 C-92.02050394 154.26303885 -89.01303633 137.99210115 -74.57566833 118.03855896 C-71.91318779 114.30592386 -69.6190972 110.40747151 -67.34634399 106.43083191 C-66.64871596 105.26529197 -65.94767515 104.10178625 -65.24282837 102.94059753 C-64.23075699 101.26852321 -63.21913401 99.59615818 -62.21572876 97.91886902 C-61.18160705 96.19028333 -60.13910701 94.46671854 -59.09634399 92.74333191 C-58.51328491 91.77580994 -57.93022583 90.80828796 -57.32949829 89.81144714 C-55.58462524 87.24723816 -55.58462524 87.24723816 -51.58462524 83.24723816 C-51.58462524 147.26723816 -51.58462524 211.28723816 -51.58462524 277.24723816 C-19.90462524 277.09255066 -19.90462524 277.09255066 12.41537476 276.93473816 C19.03599976 276.90984314 25.65662476 276.88494812 32.47787476 276.85929871 C38.51426408 276.82265125 38.51426408 276.82265125 44.55062866 276.78222656 C47.19886239 276.76628154 49.84672406 276.75475124 52.4949646 276.75012207 C94.55349782 276.6652748 137.91308105 270.97160006 171.41537476 243.24723816 C172.26357788 242.56274597 173.11178101 241.87825378 173.98568726 241.17301941 C195.12783631 223.24527233 206.16118067 196.94783413 209.10287476 169.74723816 C209.22912318 167.91529298 209.33199311 166.08163433 209.41537476 164.24723816 C209.46822632 163.16700378 209.52107788 162.08676941 209.57553101 160.97380066 C210.36458311 129.3431032 200.14731258 100.28693861 178.41537476 77.24723816 C177.86236694 76.62977722 177.30935913 76.01231628 176.73959351 75.37614441 C151.15787005 47.8900743 107.10896755 38.88690665 71.41537476 37.24723816 C64.0348552 37.02612841 56.65011894 36.9920188 49.26693726 36.93083191 C47.15701941 36.91021586 45.04710527 36.88921834 42.93719482 36.86785889 C37.43005398 36.81311774 31.9228789 36.76350051 26.41567993 36.7150116 C20.77752701 36.66444246 15.13942275 36.60894277 9.50131226 36.55387878 C-1.52729183 36.44688539 -12.55593849 36.34531416 -23.58462524 36.24723816 C-21.9771534 32.09407908 -19.9998603 28.31511897 -17.74087524 24.48551941 C-17.37111572 23.85365219 -17.0013562 23.22178497 -16.62039185 22.57077026 C-15.84209288 21.24277763 -15.06207267 19.91579243 -14.28042603 18.58976746 C-13.08391167 16.55852677 -11.89447016 14.5232641 -10.70571899 12.48747253 C-9.94702285 11.19490912 -9.18792225 9.90258301 -8.42837524 8.61051941 C-7.89548889 7.69802177 -7.89548889 7.69802177 -7.35183716 6.76708984 C-3.55050083 0.33963117 -3.55050083 0.33963117 0 0 Z " fill="#1C1C1B" transform="translate(1629.5846252441406,545.7527618408203)"/>
<path d="M0 0 C12.87 0 25.74 0 39 0 C39.33 59.73 39.66 119.46 40 181 C44.95 177.04 49.9 173.08 55 169 C59.32478245 165.65441357 63.655113 162.31908549 68 159 C76.1410613 152.75679121 84.25177992 146.47608772 92.34643555 140.17285156 C97.74661635 135.96960334 103.165597 131.79206695 108.59375 127.625 C112.74241368 124.43372025 116.87032481 121.215787 121 118 C127.18146123 113.18648277 133.37921882 108.39575121 139.59375 103.625 C143.74241389 100.43372009 147.87030247 97.21575864 152 94 C160.3255216 87.51773201 168.68336578 81.07925899 177.0546875 74.65625 C184.17309455 69.18874534 191.26448813 63.68750086 198.34643555 58.17285156 C203.74661635 53.96960334 209.165597 49.79206695 214.59375 45.625 C218.74241368 42.43372025 222.87032481 39.215787 227 36 C233.17344678 31.19272364 239.36233093 26.40714307 245.5703125 21.64453125 C248.24065407 19.59073152 250.89897782 17.52190088 253.5546875 15.44921875 C254.35197266 14.82724609 255.14925781 14.20527344 255.97070312 13.56445312 C257.53027168 12.34695078 259.08892219 11.12827118 260.64648438 9.90820312 C261.36900391 9.34423828 262.09152344 8.78027344 262.8359375 8.19921875 C263.47063965 7.70252686 264.1053418 7.20583496 264.75927734 6.6940918 C265.49871582 6.1350415 266.2381543 5.57599121 267 5 C267.68229424 4.35900612 267.68229424 4.35900612 268.37837219 3.70506287 C273.92470909 -1.05696812 279.45593983 -0.64694717 286.49609375 -0.48828125 C287.68477554 -0.48120651 288.87345734 -0.47413177 290.09815979 -0.46684265 C293.87859166 -0.4389511 297.65751903 -0.376217 301.4375 -0.3125 C304.00714 -0.2874106 306.57680332 -0.26459857 309.14648438 -0.24414062 C315.43149915 -0.18914128 321.71564206 -0.10556515 328 0 C326.15499501 4.08804676 323.87461255 5.87940266 320.25 8.5625 C319.0657927 9.44970248 317.88222008 10.33775261 316.69921875 11.2265625 C315.78148682 11.91153809 315.78148682 11.91153809 314.84521484 12.61035156 C311.8825462 14.84156484 308.97295444 17.13884418 306.0625 19.4375 C304.88549318 20.36468047 303.70840945 21.29176332 302.53125 22.21875 C301.94730469 22.67894531 301.36335938 23.13914062 300.76171875 23.61328125 C299.02010212 24.98417682 297.27612115 26.35199991 295.53125 27.71875 C290.18002107 31.91207981 284.84215746 36.11942756 279.54492188 40.38085938 C273.61328291 45.15236706 267.62655981 49.83527478 261.5625 54.4375 C255.2117051 59.26012135 248.9844471 64.21112559 242.81323242 69.26098633 C236.84498534 74.14235234 230.79431372 78.91177097 224.71777344 83.65722656 C221.80728372 85.93233933 218.90405504 88.2166837 216 90.5 C214.83336721 91.41670978 213.66670056 92.33337648 212.5 93.25 C211.9225 93.70375 211.345 94.1575 210.75 94.625 C205.5 98.75 205.5 98.75 203.74829102 100.1262207 C202.58716265 101.03861692 201.42619136 101.95121307 200.26538086 102.86401367 C197.26526615 105.22272164 194.26211261 107.57739925 191.25390625 109.92578125 C185.39878028 114.50168114 179.57818396 119.08588556 174 124 C175.14275391 125.21623047 175.14275391 125.21623047 176.30859375 126.45703125 C182.01016465 132.55942862 187.49248186 138.73746836 192.72265625 145.25390625 C195.2182639 148.26318958 197.83763481 151.13940286 200.5 154 C203.95161936 157.70861688 207.26522148 161.48505895 210.4375 165.4375 C214.28110057 170.21621628 218.36960164 174.69157687 222.55834961 179.16381836 C226.4599667 183.35329526 230.07324797 187.72172936 233.65625 192.1875 C236.33208278 195.39849934 239.14359707 198.45027636 242 201.5 C246.45874444 206.26088994 250.6379783 211.1646782 254.72265625 216.25390625 C257.2182639 219.26318958 259.83763481 222.13940286 262.5 225 C265.95161936 228.70861688 269.26522148 232.48505895 272.4375 236.4375 C276.28110057 241.21621628 280.36960164 245.69157687 284.55834961 250.16381836 C288.4599667 254.35329526 292.07324797 258.72172936 295.65625 263.1875 C298.33208278 266.39849934 301.14359707 269.45027636 304 272.5 C308.4574971 277.25955808 312.63608172 282.16145692 316.71875 287.25 C319.2370987 290.28581761 321.87553227 293.17670218 324.5625 296.0625 C338 310.51379672 338 310.51379672 338 313 C331.26132286 313.35810768 324.52513039 313.60136119 317.77905273 313.76904297 C315.49036029 313.83899807 313.2022834 313.93420942 310.91577148 314.05615234 C290.89850755 315.09612371 290.89850755 315.09612371 284.6730957 310.01245117 C281.80464851 307.16918443 279.40779671 304.09225468 277.16877747 300.73674011 C275.46675287 298.2076236 273.51383709 295.9014717 271.5625 293.5625 C270.86253906 292.68722656 270.16257812 291.81195312 269.44140625 290.91015625 C266.42302997 287.31225172 263.22643905 283.91085578 260 280.5 C255.21106097 275.4373349 250.69833951 270.26883172 246.34765625 264.8203125 C242.4233519 260.10592358 238.18973138 255.68094284 233.99609375 251.20703125 C229.61883286 246.5360668 225.4485711 241.70252459 221.30078125 236.828125 C215.46981787 229.98481521 209.54591666 223.26016783 203.4453125 216.65625 C199.29611335 212.14913272 195.29299196 207.52480269 191.328125 202.85546875 C186.26349915 196.90077252 181.15289094 191.02237347 175.8125 185.3125 C172.24670888 181.50000456 168.82899214 177.63965442 165.5625 173.5625 C161.49747283 168.4960519 157.14839134 163.75333665 152.69165039 159.03344727 C149.00399763 155.12219669 145.46435661 151.11038505 142 147 C136.40724709 151.16483608 130.874009 155.39981117 125.375 159.6875 C124.58867187 160.29980469 123.80234375 160.91210938 122.9921875 161.54296875 C117.76030285 165.61976198 112.54087803 169.71211489 107.32958984 173.81518555 C101.79498941 178.16946228 96.23308633 182.48839099 90.671875 186.80859375 C86.1038589 190.35890558 81.54565402 193.92111084 77 197.5 C71.63505909 201.72125805 66.25940672 205.92859577 60.875 210.125 C60.17117187 210.67478516 59.46734375 211.22457031 58.7421875 211.79101562 C58.0409375 212.33693359 57.3396875 212.88285156 56.6171875 213.4453125 C55.93943268 213.99422653 55.26167786 214.54314056 54.56338501 215.10868835 C52 217 52 217 48.97299194 218.61592102 C42.89709714 222.14876128 42.89709714 222.14876128 39.31318283 227.97554779 C38.21422737 233.90075368 38.47592608 239.91208058 38.609375 245.91015625 C38.60931861 247.84786178 38.60396736 249.78557373 38.59356689 251.72325134 C38.58043333 256.79942924 38.63877846 261.87231499 38.71246338 266.94787598 C38.78600606 273.05012487 38.76999889 279.15272807 38.76914978 285.25533295 C38.77781578 294.50562271 38.89958395 303.74820568 39 313 C26.13 313 13.26 313 0 313 C0 209.71 0 106.42 0 0 Z " fill="#1C1C1B" transform="translate(2755,546)"/>
<path d="M0 0 C14.19 0 28.38 0 43 0 C48.55649701 9.87821691 54.09761249 19.75921048 59.5625 29.6875 C60.60042014 31.57159988 61.63853627 33.45559169 62.676651 35.33958435 C63.38713853 36.62905548 64.09753686 37.91857577 64.80784607 39.20814514 C67.24550044 43.63316829 69.68790554 48.05554304 72.1328125 52.4765625 C78.9745545 64.85150822 85.775665 77.24627868 92.49560547 89.68798828 C95.9537719 96.08511245 99.45324267 102.45700678 102.99511719 108.80810547 C107.58654459 117.04182331 112.13627264 125.29849175 116.68798828 133.55419922 C117.38444009 134.81738282 118.08089191 136.08056641 118.77734375 137.34375 C119.29962555 138.29110519 119.29962555 138.29110519 119.8324585 139.25759888 C122.26157651 143.66299483 124.69443266 148.06631178 127.12890625 152.46875 C133.97164835 164.84646289 140.77428424 177.24372225 147.49560547 189.68798828 C150.9537719 196.08511245 154.45324267 202.45700678 157.99511719 208.80810547 C162.58654459 217.04182331 167.13627264 225.29849175 171.68798828 233.55419922 C172.38444009 234.81738282 173.08089191 236.08056641 173.77734375 237.34375 C174.29962555 238.29110519 174.29962555 238.29110519 174.8324585 239.25759888 C177.26157652 243.66299484 179.69444148 248.0663069 182.12890625 252.46875 C183.48204188 254.91651695 184.83487783 257.36444929 186.1875 259.8125 C186.51879913 260.41203491 186.85009827 261.01156982 187.19143677 261.62927246 C192.40801331 271.07336353 197.55933589 280.55161168 202.67138672 290.05273438 C205.9401004 296.10876368 209.30997515 302.06870067 212.92578125 307.92578125 C214 310 214 310 214 313 C199.81 313 185.62 313 171 313 C159.59558161 292.47204689 159.59558161 292.47204689 154.1875 282.375 C152.99108527 280.1483301 151.7944657 277.92177026 150.59765625 275.6953125 C149.70457764 274.03290527 149.70457764 274.03290527 148.79345703 272.33691406 C145.90975236 266.97148043 143.02086603 261.60887987 140.125 256.25 C139.58939453 255.25838867 139.05378906 254.26677734 138.50195312 253.24511719 C134.88107209 246.56474951 131.15421617 239.95827977 127.29296875 233.4140625 C126 231 126 231 126 229 C22.545 229.495 22.545 229.495 -83 230 C-87.62 238.58 -92.24 247.16 -97 256 C-103.0625 267.125 -103.0625 267.125 -105.98046875 272.46484375 C-109.82583776 279.50642962 -113.64372343 286.56288378 -117.46118164 293.61962891 C-118.21902954 295.02027588 -118.21902954 295.02027588 -118.9921875 296.44921875 C-119.42901855 297.25705811 -119.86584961 298.06489746 -120.31591797 298.8972168 C-122.86966433 303.6022853 -125.43649518 308.30024116 -128 313 C-142.19 313 -156.38 313 -171 313 C-169.34449666 308.03348999 -167.44083546 303.92175102 -164.875 299.4375 C-163.9680353 297.82852766 -163.06184 296.21912147 -162.15625 294.609375 C-161.65480469 293.72056641 -161.15335938 292.83175781 -160.63671875 291.91601562 C-157.86002875 286.9690011 -155.12617749 281.99832458 -152.38937378 277.0291748 C-150.66821257 273.90427223 -148.94534014 270.78031332 -147.22265625 267.65625 C-146.70029137 266.70875885 -146.70029137 266.70875885 -146.16737366 265.74212646 C-143.73833628 261.33680844 -141.30551547 256.93359441 -138.87109375 252.53125 C-132.02835165 240.15353711 -125.22571576 227.75627775 -118.50439453 215.31201172 C-115.0462281 208.91488755 -111.54675733 202.54299322 -108.00488281 196.19189453 C-103.41345541 187.95817669 -98.86372736 179.70150825 -94.31201172 171.44580078 C-93.61555991 170.18261718 -92.91910809 168.91943359 -92.22265625 167.65625 C-91.87446838 167.02467987 -91.52628052 166.39310974 -91.1675415 165.74240112 C-88.73842349 161.33700517 -86.30556734 156.93368822 -83.87109375 152.53125 C-77.02835165 140.15353711 -70.22571576 127.75627775 -63.50439453 115.31201172 C-60.0462281 108.91488755 -56.54675733 102.54299322 -53.00488281 96.19189453 C-48.41345541 87.95817669 -43.86372736 79.70150825 -39.31201172 71.44580078 C-38.61555991 70.18261718 -37.91910809 68.91943359 -37.22265625 67.65625 C-36.87446838 67.02467987 -36.52628052 66.39310974 -36.1675415 65.74240112 C-33.73842349 61.33700517 -31.30556504 56.93368949 -28.87109375 52.53125 C-21.91129146 39.94165184 -14.98235784 27.33718777 -8.15942383 14.67260742 C-7.66853271 13.7622876 -7.1776416 12.85196777 -6.671875 11.9140625 C-6.03910645 10.7377124 -6.03910645 10.7377124 -5.39355469 9.53759766 C-3.63548184 6.33622955 -1.81206744 3.17111802 0 0 Z M21 37 C14.95719977 47.58289352 9.13284593 58.27560813 3.36889648 69.01269531 C-0.41689047 76.06380594 -4.22395394 83.10247428 -8.0625 90.125 C-12.22496258 97.74106741 -16.36969748 105.36644162 -20.5 113 C-25.14277666 121.5798678 -29.80471501 130.14900321 -34.48046875 138.7109375 C-38.71074808 146.46089805 -42.91875521 154.22280576 -47.1159668 161.99072266 C-49.88759234 167.11653248 -52.67432153 172.23322765 -55.48828125 177.3359375 C-56.32552734 178.85767578 -56.32552734 178.85767578 -57.1796875 180.41015625 C-58.24778538 182.34959714 -59.31926647 184.28717964 -60.39453125 186.22265625 C-60.86890625 187.08503906 -61.34328125 187.94742188 -61.83203125 188.8359375 C-62.46202026 189.97361572 -62.46202026 189.97361572 -63.10473633 191.13427734 C-64.14420661 192.95562541 -64.14420661 192.95562541 -64 195 C-7.57 195 48.86 195 107 195 C101.85920513 184.71841025 96.6802019 174.50012119 91.25 164.375 C90.54900019 163.06432891 89.84807376 161.75361857 89.1472168 160.44287109 C84.12150304 151.05278443 79.04079695 141.69330579 73.92578125 132.3515625 C70.76510119 126.57783966 67.63180746 120.78942139 64.5 115 C59.85809036 106.42152506 55.19719134 97.85368508 50.52172852 89.29345703 C46.81094601 82.49594216 43.12154834 75.68703445 39.4375 68.875 C33.67530233 58.22216847 27.85443848 47.60238631 22 37 C21.67 37 21.34 37 21 37 Z " fill="#1C1C1B" transform="translate(2069,546)"/>
<path d="M0 0 C105.6 0 211.2 0 320 0 C319.34 1.65 318.68 3.3 318 5 C317.68418976 6.08628693 317.36837952 7.17257385 317.04299927 8.29177856 C313.92391388 18.46442695 309.53090073 29.31366128 300 35 C284.01203829 40.59761047 264.54193254 38.0085981 247.92995763 37.16080308 C241.17038035 36.82192681 234.40979251 36.65966993 227.64380622 36.50970817 C213.75318154 36.19799778 199.87752866 35.67217365 186 35 C186.02350572 36.42871571 186.02350572 36.42871571 186.04748631 37.88629436 C186.42696875 61.19558785 186.70521253 84.50447525 186.88080692 107.81621838 C186.96800912 119.09043684 187.08661303 130.36260015 187.2824707 141.63549805 C187.45334796 151.47540506 187.56192066 161.31382242 187.59950441 171.15517217 C187.62143473 176.3541955 187.67193787 181.54896235 187.79741096 186.74660301 C188.39096941 212.32098092 186.55189673 230.4146334 170.99104309 251.28839493 C168.29925276 254.95434889 166.02294477 258.80651411 163.76171875 262.74609375 C163.06431606 263.90267179 162.36328557 265.05707204 161.65820312 266.20898438 C160.2906293 268.44941999 158.92599114 270.69145549 157.56445312 272.93554688 C151.12720835 283.51320789 151.12720835 283.51320789 148 288 C147.67 288 147.34 288 147 288 C147 204.51 147 121.02 147 35 C98.49 35 49.98 35 0 35 C0 23.45 0 11.9 0 0 Z " fill="#1C1C1B" transform="translate(4062,546)"/>
<path d="M0 0 C38.0840625 -0.0928125 38.0840625 -0.0928125 76.9375 -0.1875 C84.92702881 -0.21481201 92.91655762 -0.24212402 101.14819336 -0.27026367 C110.97375488 -0.28381348 110.97375488 -0.28381348 115.58692932 -0.28633118 C118.77958042 -0.28910382 121.97207885 -0.30025601 125.16468811 -0.31672668 C129.25810811 -0.33755943 133.35131143 -0.34342712 137.44477952 -0.33921683 C138.93391583 -0.34009504 140.42306104 -0.34589102 141.91215122 -0.35764539 C166.03731974 -0.53897712 189.95765036 4.86138266 208.0078125 21.88671875 C220.2334914 34.85552716 224.71307029 51.44431106 224.2421875 68.9140625 C223.39615773 86.71419387 215.86828192 100.96773977 202.91796875 112.921875 C189.4562551 124.2107332 172.99116586 128.31532514 156 131 C156.54527344 131.59425781 157.09054688 132.18851563 157.65234375 132.80078125 C161.646404 137.1908338 165.53943997 141.61696308 169.25 146.25 C173.91058865 152.01441228 178.93779281 157.38851953 184.00390625 162.79296875 C188.38116714 167.4639332 192.5514289 172.29747541 196.69921875 177.171875 C202.5235855 184.00744288 208.43914412 190.72594025 214.53515625 197.3203125 C217.19376091 200.21064974 219.79288586 203.14456793 222.36328125 206.11328125 C223.56037068 207.49321967 224.76754154 208.86443041 225.98046875 210.23046875 C226.62628906 210.95878906 227.27210938 211.68710938 227.9375 212.4375 C228.52402344 213.09621094 229.11054688 213.75492188 229.71484375 214.43359375 C231 216 231 216 231 217 C210.06052782 219.24883757 210.06052782 219.24883757 204.1171875 214.4921875 C201.47162803 211.8231723 199.27875232 208.85856187 197.18505859 205.74414062 C195.4355804 203.16930087 193.43523622 200.82223224 191.4375 198.4375 C190.72464844 197.54933594 190.01179688 196.66117188 189.27734375 195.74609375 C186.78173531 192.73680948 184.16234857 189.86061346 181.5 187 C177.23079221 182.41242561 173.24241261 177.66556996 169.3125 172.78125 C166.35823636 169.22814914 163.23086576 165.8597632 160.08374023 162.47827148 C157.11284372 159.2670095 154.30038923 155.97372185 151.5625 152.5625 C147.55598996 147.57435865 143.28519908 142.8889543 138.89672852 138.23852539 C135.09787368 134.19574736 135.09787368 134.19574736 134 132 C95.72 131.67 57.44 131.34 18 131 C18 159.38 18 187.76 18 217 C12.06 217 6.12 217 0 217 C0 145.39 0 73.78 0 0 Z M18 16 C18 48.67 18 81.34 18 115 C40.71483684 115.05834562 40.71483684 115.05834562 63.4296875 115.09765625 C72.70347323 115.10948637 81.97722241 115.12333239 91.25097656 115.15087891 C98.00741799 115.17093833 104.76382953 115.18374591 111.52029991 115.18817699 C115.09118734 115.19076333 118.66198933 115.19675531 122.23284912 115.21146011 C161.45497299 115.68408037 161.45497299 115.68408037 194.99609375 97.1953125 C204.9639999 86.27530615 206.75308194 74.10776478 206.34765625 59.8671875 C205.81930161 50.04622994 202.53988154 42.28233186 196 35 C195.48695313 34.39542969 194.97390625 33.79085937 194.4453125 33.16796875 C184.93240746 22.72197973 168.8740468 17.20968579 155 16 C150.5427851 15.8602378 146.0882195 15.87370943 141.62915039 15.88647461 C140.27838137 15.88675702 138.92761219 15.88659769 137.57684326 15.8860321 C133.92653416 15.88574623 130.2762582 15.89160894 126.62595677 15.89860606 C122.80495578 15.90487464 118.98395395 15.90544617 115.16294861 15.90663147 C107.93477551 15.90973447 100.70661761 15.91793393 93.47845119 15.92798096 C83.70576711 15.94126878 73.93307884 15.94665034 64.16038799 15.95248318 C48.77358062 15.96187453 33.38680531 15.98180034 18 16 Z " fill="#1C1C1B" transform="translate(3139,920)"/>
<path d="M0 0 C38.0840625 -0.0928125 38.0840625 -0.0928125 76.9375 -0.1875 C84.92702881 -0.21481201 92.91655762 -0.24212402 101.14819336 -0.27026367 C110.97375488 -0.28381348 110.97375488 -0.28381348 115.58692932 -0.28633118 C118.77958042 -0.28910382 121.97207885 -0.30025601 125.16468811 -0.31672668 C129.25810811 -0.33755943 133.35131143 -0.34342712 137.44477952 -0.33921683 C138.93391583 -0.34009504 140.42306104 -0.34589102 141.91215122 -0.35764539 C164.98736366 -0.53108535 188.52203104 4.34614349 205.71875 20.7265625 C206.84796875 21.85191406 206.84796875 21.85191406 208 23 C208.97453125 23.93972656 208.97453125 23.93972656 209.96875 24.8984375 C221.19629042 36.5691703 224.08516926 52.40661866 224 68 C222.95003749 84.04942689 217.23141038 100.04267379 205.22265625 111.1953125 C190.66719263 123.01363269 173.34424796 128.4465882 155 131 C155.40089844 131.37769531 155.80179688 131.75539063 156.21484375 132.14453125 C159.78432117 135.60069193 163.0198125 139.18245056 166.125 143.0625 C170.81500537 148.89288339 175.87516404 154.32214786 180.9921875 159.77734375 C183.84546778 162.82137013 186.61188009 165.92966877 189.3359375 169.08984375 C191.31540126 171.36204511 193.3458317 173.58459872 195.375 175.8125 C198.44746773 179.21083552 201.38442622 182.67590523 204.25 186.25 C209.38081745 192.59601105 214.9661766 198.48628979 220.54199219 204.4375 C222.46743872 206.50093901 224.36971825 208.58282249 226.25 210.6875 C227.03117187 211.55955078 227.03117187 211.55955078 227.828125 212.44921875 C229 214 229 214 230 217 C226.48003799 217.20488457 222.96162121 217.32813842 219.4375 217.4375 C218.44685547 217.49615234 217.45621094 217.55480469 216.43554688 217.61523438 C209.18461819 217.78386062 209.18461819 217.78386062 205.87036133 215.59082031 C204.07412806 213.81983869 202.52649098 212.0061024 201 210 C200.26394531 209.13117188 199.52789063 208.26234375 198.76953125 207.3671875 C198.12371094 206.54476563 197.47789062 205.72234375 196.8125 204.875 C193.36238435 200.58439621 189.76226067 196.51335506 186 192.5 C181.54102901 187.73933097 177.36200536 182.83530143 173.27734375 177.74609375 C170.78173531 174.73680948 168.16234857 171.86061346 165.5 169 C162.02580757 165.26672745 158.6993129 161.47628889 155.5 157.5 C151.04441336 151.96644885 146.31889551 146.72708285 141.40936375 141.59309387 C140 140 140 140 138.59697628 137.99028015 C136.25573679 134.81559477 134.39071043 132.41748556 130.52791023 131.25788879 C127.54249687 130.97644322 124.64697976 130.94457899 121.64868164 131 C120.52599884 130.98907822 119.40331604 130.97815643 118.24661255 130.96690369 C114.55019836 130.94027489 110.85650649 130.96982766 107.16015625 131 C104.59181999 130.99248012 102.02349181 130.98144503 99.45518494 130.96704102 C93.39539687 130.94152144 87.33661878 130.95134638 81.27686828 130.97846508 C73.69685346 131.01020751 66.11712301 130.98758948 58.53710938 130.96484375 C45.02430128 130.924534 31.51327793 130.96609496 18 131 C18 159.38 18 187.76 18 217 C12.06 217 6.12 217 0 217 C0 145.39 0 73.78 0 0 Z M17 16 C17 48.67 17 81.34 17 115 C39.89257127 115.05834467 39.89257127 115.05834467 62.78515625 115.09765625 C72.13137019 115.10948683 81.47754786 115.12333417 90.82373047 115.15087891 C97.63290961 115.17093695 104.44205909 115.18374559 111.25126696 115.18817699 C114.85009976 115.19076356 118.44884781 115.19675706 122.0476532 115.21146011 C157.21412525 115.68524631 157.21412525 115.68524631 189 102 C190.051875 101.278125 191.10375 100.55625 192.1875 99.8125 C201.6320916 90.3679084 206.30823359 78.28101277 206.5 65 C206.31448836 51.02144702 201.35160784 39.96951591 191.4375 30.3125 C172.85963618 14.46748687 148.29779293 15.41571017 125.30869436 15.59442425 C121.48912072 15.61975935 117.66952874 15.62180478 113.84988403 15.62652588 C106.64675677 15.63886281 99.44387796 15.67155584 92.24085915 15.71192384 C82.48632205 15.76538206 72.73171501 15.78666221 62.97706795 15.80993271 C47.65119323 15.84732632 32.32584232 15.92707767 17 16 Z " fill="#1C1C1B" transform="translate(1785,920)"/>
<path d="M0 0 C66.33 0 132.66 0 201 0 C201 5.28 201 10.56 201 16 C140.28 16 79.56 16 17 16 C17 43.39 17 70.78 17 99 C69.14 99 121.28 99 175 99 C175 104.28 175 109.56 175 115 C122.86 115 70.72 115 17 115 C17 143.38 17 171.76 17 201 C78.71 201 140.42 201 204 201 C204 206.28 204 211.56 204 217 C136.68 217 69.36 217 0 217 C0 145.39 0 73.78 0 0 Z " fill="#1C1C1B" transform="translate(2878,920)"/>
<path d="M0 0 C5.61 0 11.22 0 17 0 C17.33 43.89 17.66 87.78 18 133 C32.82952597 122.09994273 32.82952597 122.09994273 47.5 111 C58.00934287 102.95607735 68.65637757 95.10934697 79.33398438 87.29101562 C89.35616884 79.94811189 99.29725718 72.51264001 109.16357422 64.96142578 C115.66499335 59.99398204 122.23236885 55.12471497 128.83374023 50.29125977 C134.79958611 45.91217394 140.68881759 41.43922739 146.5625 36.9375 C153.68511406 31.48099449 160.84478952 26.09267987 168.20703125 20.96191406 C172.33259562 18.05773388 176.16194136 15.01767763 179.91015625 11.63671875 C190.87117761 2.02108974 198.39219466 -1.62548644 213.17797852 -0.81567383 C215.79665122 -0.60122515 218.39466229 -0.33721857 221 0 C217.55563449 4.94551946 213.21694758 7.99055809 208.375 11.4375 C201.7625949 16.22310208 195.2342532 21.08619944 188.8125 26.125 C182.67726154 30.93032847 176.49582376 35.66125856 170.24926758 40.32080078 C164.6378026 44.51027187 159.06602826 48.75039749 153.5 53 C145.36032217 59.21178223 137.19091453 65.3814245 128.98974609 71.51171875 C125.32358044 74.25392069 121.66216606 77.00246042 118 79.75 C116.64585199 80.76564988 115.29168716 81.78127732 113.9375 82.796875 C112.968125 83.52390625 111.99875 84.2509375 111 85 C114.3920971 88.97991792 117.80410241 92.93410191 121.3125 96.8125 C122.08207031 97.66457031 122.85164063 98.51664063 123.64453125 99.39453125 C124.42183594 100.25433594 125.19914062 101.11414063 126 102 C127.50042947 103.66628005 129.00043381 105.332943 130.5 107 C131.24507812 107.82757812 131.99015625 108.65515625 132.7578125 109.5078125 C134.23292618 111.14739879 135.70691652 112.78799655 137.1796875 114.4296875 C141.30097768 119.0203061 145.44873788 123.58447107 149.625 128.125 C153.18253099 131.99367822 156.68289575 135.90334125 160.125 139.875 C162.54550075 142.61823418 165.02200642 145.30884568 167.5 148 C171.10012756 151.90981595 174.64417605 155.85866468 178.125 159.875 C180.54550075 162.61823418 183.02200642 165.30884568 185.5 168 C188.53888018 171.30028923 191.56156045 174.60949283 194.5 178 C197.86322638 181.87817013 201.33335671 185.65527811 204.80810547 189.43310547 C208.49651163 193.44476804 212.15469839 197.48219008 215.7890625 201.54296875 C217.35627386 203.28462236 218.93567723 205.01534015 220.5234375 206.73828125 C221.34070312 207.62902344 222.15796875 208.51976562 223 209.4375 C223.7425 210.24058594 224.485 211.04367187 225.25 211.87109375 C227 214 227 214 228 217 C224.48003799 217.20488457 220.96162121 217.32813842 217.4375 217.4375 C216.44685547 217.49615234 215.45621094 217.55480469 214.43554688 217.61523438 C207.16153186 217.78439751 207.16153186 217.78439751 203.83520508 215.53808594 C202.06097563 213.77532427 200.52513413 211.9798309 199 210 C197.94273336 208.78708494 196.88080799 207.57820145 195.8125 206.375 C194.95205078 205.37726563 194.95205078 205.37726563 194.07421875 204.359375 C191.47370905 201.40135643 188.80268981 198.51307375 186.125 195.625 C181.80235068 190.96073704 177.52183243 186.26305715 173.27734375 181.52734375 C170.70190225 178.66917797 168.10314236 175.83289739 165.5 173 C161.40830793 168.54667383 157.35177023 164.06340112 153.3125 159.5625 C150.72384997 156.69399591 148.11414854 153.8452335 145.5 151 C141.40833893 146.54664513 137.35177054 142.06340146 133.3125 137.5625 C130.72384997 134.69399591 128.11414854 131.8452335 125.5 129 C121.41579892 124.55476457 117.36537213 120.08086638 113.3359375 115.5859375 C111.60062249 113.66490315 109.85685419 111.75418359 108.1015625 109.8515625 C107.60720703 109.3153125 107.11285156 108.7790625 106.60351562 108.2265625 C105.64289858 107.18599978 104.68074338 106.14685417 103.71679688 105.109375 C101.31556028 102.50774238 99.06100211 99.87994335 97 97 C93.52070861 97.61514775 91.45280643 98.94397716 88.68359375 101.10546875 C87.84675049 101.75209473 87.00990723 102.3987207 86.14770508 103.06494141 C85.2533374 103.76538574 84.35896973 104.46583008 83.4375 105.1875 C81.53488726 106.65888892 79.6312201 108.12891529 77.7265625 109.59765625 C76.7665332 110.33902832 75.80650391 111.08040039 74.81738281 111.84423828 C70.69374931 114.99949685 66.50691042 118.06484157 62.3125 121.125 C56.0674036 125.69491517 49.9076828 130.35696765 43.8125 135.125 C37.90287415 139.74557206 31.97985638 144.34548445 26 148.875 C25.32300049 149.39336426 24.64600098 149.91172852 23.94848633 150.44580078 C19.23254868 154 19.23254868 154 17 154 C17 174.79 17 195.58 17 217 C11.39 217 5.78 217 0 217 C0 145.39 0 73.78 0 0 Z " fill="#1C1C1B" transform="translate(2607,920)"/>
<path d="M0 0 C6.6 0 13.2 0 20 0 C26.88730781 12.13699269 33.73476446 24.29447902 40.5 36.5 C45.1306431 44.85409439 49.78857853 53.19118775 54.5 61.5 C59.86059989 70.95366878 65.14537251 80.44797817 70.4140625 89.953125 C74.40939242 97.15458387 78.43777796 104.33608132 82.5 111.5 C87.86059989 120.95366878 93.14537251 130.44797817 98.4140625 139.953125 C102.40939252 147.15458405 106.43779243 154.33607295 110.5 161.5 C115.94275552 171.09896496 121.3135424 180.73669677 126.66235352 190.38818359 C130.5930664 197.47865845 134.54418979 204.55668839 138.56347656 211.59741211 C141 215.89241233 141 215.89241233 141 217 C134.4 217 127.8 217 121 217 C120.21238281 215.53433594 119.42476562 214.06867188 118.61328125 212.55859375 C111.96195822 200.21261659 105.19869477 187.93997532 98.265625 175.75 C94.15514811 168.51241389 90.08063114 161.25445535 86 154 C35.84 154 -14.32 154 -66 154 C-70.29 161.92 -74.58 169.84 -79 178 C-81.23527962 182.01062516 -83.47335553 186.01365305 -85.75 190 C-86.82175671 191.88663802 -87.89337036 193.77335731 -88.96484375 195.66015625 C-89.72837158 197.00231201 -89.72837158 197.00231201 -90.50732422 198.37158203 C-92.78760548 202.38687612 -95.05094606 206.41163726 -97.3125 210.4375 C-99.1378125 213.6859375 -99.1378125 213.6859375 -101 217 C-107.6 217 -114.2 217 -121 217 C-111.00708756 198.03386006 -100.48833866 179.35248822 -89.9152832 160.70507812 C-85.7361182 153.32581221 -81.6113584 145.91722618 -77.5 138.5 C-72.34967452 129.20839241 -67.15419151 119.94433775 -61.9140625 110.703125 C-57.73550204 103.32439873 -53.61098674 95.91655566 -49.5 88.5 C-44.34967452 79.20839241 -39.15419151 69.94433775 -33.9140625 60.703125 C-29.09733348 52.19748643 -24.35491857 43.65136265 -19.61669922 35.10180664 C-14.77225778 26.36881446 -9.87544497 17.66645656 -4.94726562 8.98046875 C-4.44130859 8.0884375 -3.93535156 7.19640625 -3.4140625 6.27734375 C-2.9701416 5.49609131 -2.5262207 4.71483887 -2.06884766 3.90991211 C-1.34875911 2.62319382 -0.65941967 1.31883933 0 0 Z M9 17 C8.51140503 17.90987671 8.51140503 17.90987671 8.01293945 18.83813477 C2.00517972 30.01216966 -4.04256713 41.15802453 -10.3125 52.1875 C-15.23103067 60.84006828 -20.07531958 69.53115296 -24.875 78.25 C-27.62555547 83.24554165 -27.62555547 83.24554165 -28.93359375 85.62109375 C-29.26931396 86.2308606 -29.60503418 86.84062744 -29.95092773 87.46887207 C-33.59859482 94.09148435 -37.26600887 100.70307266 -40.9375 107.3125 C-41.55681396 108.42842529 -42.17612793 109.54435059 -42.81420898 110.6940918 C-45.50202064 115.53157297 -48.19835795 120.36324302 -50.9375 125.171875 C-51.58150757 126.30435669 -51.58150757 126.30435669 -52.23852539 127.4597168 C-53.00980415 128.81239934 -53.7847415 130.16300583 -54.56420898 131.51098633 C-56.42109485 134.56005802 -56.42109485 134.56005802 -57 138 C-12.78 138 31.44 138 77 138 C75.57306996 133.71920989 74.39461681 130.62537223 72.234375 126.82421875 C71.68144775 125.84469238 71.12852051 124.86516602 70.55883789 123.85595703 C69.96192139 122.81036621 69.36500488 121.76477539 68.75 120.6875 C67.47253705 118.42845282 66.19519664 116.16933634 64.91796875 113.91015625 C64.25843188 112.74748421 63.59876403 111.58488648 62.93896484 110.42236328 C59.96150027 105.16699959 57.01172331 99.89624766 54.0625 94.625 C53.48927002 93.60188721 52.91604004 92.57877441 52.32543945 91.5246582 C48.01001886 83.81885014 43.72117929 76.09848696 39.4375 68.375 C33.15088265 57.04395793 26.80433148 45.74829784 20.40429688 34.48095703 C19.0890674 32.15735446 17.78464161 29.82809365 16.484375 27.49609375 C15.92544556 26.49993042 15.92544556 26.49993042 15.35522461 25.48364258 C14.39647559 23.77468536 13.44216396 22.06324069 12.48828125 20.3515625 C11.21555557 17.89252055 11.21555557 17.89252055 9 17 Z " fill="#1C1C1B" transform="translate(2158,920)"/>
<path d="M0 0 C0.75603516 0.70261963 0.75603516 0.70261963 1.52734375 1.41943359 C7.87713405 7.37527297 13.6232108 13.39820823 18 21 C14.94746898 23.40875078 11.78648153 25.32543798 8.375 27.1875 C7.41335937 27.71730469 6.45171875 28.24710938 5.4609375 28.79296875 C3 30 3 30 1 30 C-0.24765698 28.39928901 -1.42241864 26.74152892 -2.5625 25.0625 C-18.06869147 3.4092112 -40.49173678 -6.13048974 -66 -11 C-70.94251437 -11.81525259 -75.78338766 -12.18270112 -80.78515625 -12.23828125 C-81.51510803 -12.24802979 -82.24505981 -12.25777832 -82.99713135 -12.26782227 C-99.35935033 -12.44128408 -115.07440059 -12.24120901 -131 -8 C-131.68707031 -7.82339844 -132.37414063 -7.64679687 -133.08203125 -7.46484375 C-147.66359987 -3.58217755 -161.8617331 3.79488559 -173 14 C-173.75410156 14.66257812 -174.50820312 15.32515625 -175.28515625 16.0078125 C-184.99354466 25.03344975 -191.66593517 36.54357663 -196 49 C-196.55300781 50.56234375 -196.55300781 50.56234375 -197.1171875 52.15625 C-205.64887161 78.80997845 -203.42414969 109.25620848 -190.91455078 134.24267578 C-180.06299912 155.094109 -161.69937073 168.96378134 -139.8125 176.75 C-127.00631312 180.73175558 -113.42637954 183.61009251 -100 184 C-99.35417969 184.02046387 -98.70835937 184.04092773 -98.04296875 184.06201172 C-65.95521322 184.94926456 -34.14190851 178.56285926 -10 156 C-6.00527133 151.55943107 -2.31346453 146.97019679 1 142 C5.23322844 142.62045463 8.52290295 144.10523559 12.3125 146.0625 C13.91544922 146.88427734 13.91544922 146.88427734 15.55078125 147.72265625 C16.35902344 148.14417969 17.16726562 148.56570313 18 149 C12.82026847 165.17530196 -6.62419398 178.48770755 -20.9765625 186.00390625 C-58.30259364 204.80986497 -104.59342489 206.10003667 -144.11328125 193.66796875 C-170.61411975 184.85863838 -194.16941743 168.06569044 -207.19921875 142.84765625 C-222.17532623 112.65647902 -224.53865142 76.98541747 -214.18212891 44.85693359 C-204.8309985 17.91403144 -185.88880434 -3.41592748 -160.2109375 -15.8828125 C-112.17130388 -38.23753435 -40.40533412 -37.69961978 0 0 Z " fill="#1C1C1B" transform="translate(2536,943)"/>
<path d="M0 0 C75.24 0 150.48 0 228 0 C228 4.95 228 9.9 228 15 C193.02 15 158.04 15 122 15 C122 81.66 122 148.32 122 217 C116.39 217 110.78 217 105 217 C105 150.34 105 83.68 105 15 C70.35 15 35.7 15 0 15 C0 10.05 0 5.1 0 0 Z " fill="#1C1C1B" transform="translate(1512,920)"/>
</svg>
